<?xml version="1.0" encoding="UTF-8"?>
<svg width="62px" height="62px" viewBox="0 0 62 62" version="1.1" xmlns="http://www.w3.org/2000/svg"
    xmlns:xlink="http://www.w3.org/1999/xlink">
    <!-- Generator: Sketch 61 (89581) - https://sketch.com -->
    <title>编组 8备份</title>
    <desc>Created with Sketch.</desc>
    <g id="页面-1" stroke="none" stroke-width="1" fill="none" fill-rule="evenodd">
        <g id="画板" transform="translate(-2457.000000, -2420.000000)">
            <g id="编组-8备份" transform="translate(2456.666667, 2420.000000)">
                <circle id="椭圆形" fill="#99CC99" cx="31" cy="31" r="30.6"></circle>
                <path
                    d="M30.991049,42 C33.200188,42 34.991049,43.790861 34.991049,46 C34.991049,48.209139 33.200188,50 30.991049,50 C28.78191,50 26.991049,48.209139 26.991049,46 C26.991049,43.790861 28.78191,42 30.991049,42 Z M30.991049,43.25 C29.4722659,43.25 28.241049,44.4812169 28.241049,46 C28.241049,47.5187831 29.4722659,48.75 30.991049,48.75 C32.509832,48.75 33.741049,47.5187831 33.741049,46 C33.741049,44.4812169 32.509832,43.25 30.991049,43.25 Z M45.98143,35.0358984 C47.8946005,36.1404679 48.5501011,38.5868295 47.4455316,40.5 C46.3409621,42.4131705 43.8946005,43.0686711 41.98143,41.9641016 C40.0682595,40.8595321 39.4127589,38.4131705 40.5173284,36.5 C41.6218979,34.5868295 44.0682595,33.9313289 45.98143,35.0358984 Z M21.4647695,36.5 C22.569339,38.4131705 21.9138384,40.8595321 20.0006679,41.9641016 C18.0874974,43.0686711 15.6411358,42.4131705 14.5365663,40.5 C13.4319968,38.5868295 14.0874974,36.1404679 16.0006679,35.0358984 C17.9138384,33.9313289 20.3602,34.5868295 21.4647695,36.5 Z M41.5998602,37.125 C40.8404686,38.4403047 41.2911253,40.1221783 42.60643,40.8815699 C43.9217347,41.6409614 45.6036083,41.1903047 46.3629999,39.875 C47.1223914,38.5596953 46.6717347,36.8778217 45.35643,36.1184301 C44.0411253,35.3590386 42.3592517,35.8096953 41.5998602,37.125 Z M16.6256679,36.1184301 C15.3103632,36.8778217 14.8597065,38.5596953 15.619098,39.875 C16.3784896,41.1903047 18.0603632,41.6409614 19.3756679,40.8815699 C20.6909726,40.1221783 21.1416293,38.4403047 20.3822378,37.125 C19.6228462,35.8096953 17.9409726,35.3590386 16.6256679,36.1184301 Z M47.4455316,21.5 C48.5501011,23.4131705 47.8946005,25.8595321 45.98143,26.9641016 C44.0682595,28.0686711 41.6218979,27.4131705 40.5173284,25.5 C39.4127589,23.5868295 40.0682595,21.1404679 41.98143,20.0358984 C43.8946005,18.9313289 46.3409621,19.5868295 47.4455316,21.5 Z M20.0006679,20.0358984 C21.9138384,21.1404679 22.569339,23.5868295 21.4647695,25.5 C20.3602,27.4131705 17.9138384,28.0686711 16.0006679,26.9641016 C14.0874974,25.8595321 13.4319968,23.4131705 14.5365663,21.5 C15.6411358,19.5868295 18.0874974,18.9313289 20.0006679,20.0358984 Z M42.60643,21.1184301 C41.2911253,21.8778217 40.8404686,23.5596953 41.5998602,24.875 C42.3592517,26.1903047 44.0411253,26.6409614 45.35643,25.8815699 C46.6717347,25.1221783 47.1223914,23.4403047 46.3629999,22.125 C45.6036083,20.8096953 43.9217347,20.3590386 42.60643,21.1184301 Z M15.619098,22.125 C14.8597065,23.4403047 15.3103632,25.1221783 16.6256679,25.8815699 C17.9409726,26.6409614 19.6228462,26.1903047 20.3822378,24.875 C21.1416293,23.5596953 20.6909726,21.8778217 19.3756679,21.1184301 C18.0603632,20.3590386 16.3784896,20.8096953 15.619098,22.125 Z M30.991049,12 C33.200188,12 34.991049,13.790861 34.991049,16 C34.991049,18.209139 33.200188,20 30.991049,20 C28.78191,20 26.991049,18.209139 26.991049,16 C26.991049,13.790861 28.78191,12 30.991049,12 Z M30.991049,13.25 C29.4722659,13.25 28.241049,14.4812169 28.241049,16 C28.241049,17.5187831 29.4722659,18.75 30.991049,18.75 C32.509832,18.75 33.741049,17.5187831 33.741049,16 C33.741049,14.4812169 32.509832,13.25 30.991049,13.25 Z"
                    id="形状结合" fill="#FFFFFF"></path>
                <path
                    d="M31,35.5 C33.4852814,35.5 35.5,33.4852814 35.5,31 C35.5,28.5147186 33.4852814,26.5 31,26.5 C28.5147186,26.5 26.5,28.5147186 26.5,31 C26.5,33.4852814 28.5147186,35.5 31,35.5 Z"
                    id="椭圆形" stroke="#FFFFFF" stroke-width="1.5" stroke-dasharray="2"></path>
                <path
                    d="M31.7999684,38.9605029 L31.8,43 L30.5,43 L30.5005231,38.9846613 C30.6657094,38.994837 30.8322517,39 31,39 C31.2699887,39 31.5368537,38.9866255 31.7999684,38.9605029 Z M38.2637973,34.3567925 L41.8673048,36.4370835 L41.2173048,37.5629165 L37.6616197,35.4313082 C37.8886866,35.0906372 38.0903169,34.7315608 38.2637973,34.3567925 Z M24.4623782,35.6119452 L21.0826952,37.5629165 L20.4326952,36.4370835 L23.8004114,34.492147 C23.9910249,34.8843973 24.2127501,35.258733 24.4623782,35.6119452 Z M41.2173048,24.4370835 L41.8673048,25.5629165 L38.2637973,27.6432075 C38.0806624,27.2475827 37.8661572,26.8694449 37.6234738,26.5119864 L41.2173048,24.4370835 Z M21.0826952,24.4370835 L24.4623782,26.3880548 C24.2127501,26.741267 23.9910249,27.1156027 23.8004114,27.507853 L20.4326952,25.5629165 L21.0826952,24.4370835 Z M31.8,19 L31.7999684,23.0394971 C31.5368537,23.0133745 31.2699887,23 31,23 C30.8322517,23 30.6657094,23.005163 30.5005231,23.0153387 L30.5,19 L31.8,19 Z"
                    id="形状结合" fill="#FFFFFF"></path>
            </g>
        </g>
    </g>
</svg>