<?xml version="1.0" encoding="UTF-8"?>
<svg width="62px" height="62px" viewBox="0 0 62 62" version="1.1" xmlns="http://www.w3.org/2000/svg"
    xmlns:xlink="http://www.w3.org/1999/xlink">
    <!-- Generator: Sketch 61 (89581) - https://sketch.com -->
    <title>编组 8备份 3</title>
    <desc>Created with Sketch.</desc>
    <g id="页面-1" stroke="none" stroke-width="1" fill="none" fill-rule="evenodd">
        <g id="画板" transform="translate(0, 0)">
            <g id="编组-8备份-3" transform="translate(0, 0)">
                <!-- <circle id="椭圆形" fill="#F66F6A" cx="31" cy="31" r="30.6"></circle> -->

                <!-- 半圆 -->
                <path d="M 31 0 A 30.6 30.6 0 1 1 31 71.2z" fill="#2C41FF60" />
                <path d="M 31 0 A 30.6 30.6 0 1 0 31 71.2z" fill="#B21EFF60" />

                <!-- 梯形 -->
                <polygon points="10.3,31 20.6,20.5 41.3,20.5 51.6,31,41.3,41.5 20.6,41.5 " fill="#ffffff" />

                <!-- 三角形 -->
                <!-- <polygon points="31,15.5 45.5,38.75 16.5,38.75" fill="#ffffff"/> -->

                <!-- 菱形 -->
                <!-- <path d="M47.7820721,32.2666797 L31.4989315,41.6403894 C31.1900864,41.8181822 30.8099623,41.8181822 30.5011171,41.6403894 L14.2179766,32.2666797 C13.739336,31.9911409 13.5746895,31.3797577 13.8502284,30.9011171 C13.9382317,30.7482458 14.0651053,30.6213723 14.2179766,30.5333689 L30.5011171,21.1596592 C30.8099623,20.9818664 31.1900864,20.9818664 31.4989315,21.1596592 L47.7820721,30.5333689 C48.2607126,30.8089078 48.4253591,31.420291 48.1498203,31.8989315 C48.0618169,32.0518028 47.9349434,32.1786764 47.7820721,32.2666797 Z" id="路径" fill="#FFFFFF" fill-rule="nonzero"></path> -->
            </g>
        </g>
    </g>
</svg>