<?xml version="1.0" encoding="utf-8"?>
<!-- Generator: Adobe Illustrator 22.1.0, SVG Export Plug-In . SVG Version: 6.00 Build 0)  -->
<svg version="1.1" id="图层_1" xmlns="http://www.w3.org/2000/svg" xmlns:xlink="http://www.w3.org/1999/xlink" x="0px" y="0px"
	 viewBox="0 0 26 26" style="enable-background:new 0 0 26 26;" xml:space="preserve">
<style type="text/css">
	.st0{fill:#0DC2F7;stroke:#0DC2F7;stroke-width:0.5;}
</style>
<title>见解1备份 3</title>
<desc>Created with Sketch.</desc>
<g id="图标">
	<g id="画板" transform="translate(-2023.000000, -3375.000000)">
		<g id="编组-5" transform="translate(1609.000000, 3076.000000)">
			<g id="见解1备份-3" transform="translate(415.000000, 300.000000)">
				<g id="血缘分析">
					<path id="形状" class="st0" d="M19.7,6.9L19.7,6.9c-2.4,0-4.3,1.9-4.3,4.3c0,0.5,0.1,0.9,0.2,1.3c-2,0.7-4.1,0.6-6.3-0.5
						c-2.1-1-3.4-2.2-4-3.5l0,0c1.9-0.5,3.2-2.2,3.2-4.1v0C8.6,1.9,6.7,0,4.3,0l0,0C1.9,0,0,1.9,0,4.3v0c0,2,1.4,3.8,3.4,4.2v7h0
						c-2,0.4-3.4,2.2-3.4,4.2v0C0,22.1,1.9,24,4.3,24l0,0c2.4,0,4.3-1.9,4.3-4.3v0c0-2-1.4-3.8-3.4-4.2v-4.4c0.9,0.9,2,1.7,3.4,2.4
						c1.6,0.8,3.1,1.1,4.6,1.1h0c1.2,0,2.3-0.2,3.4-0.7c0.8,0.9,1.9,1.4,3.2,1.4l0,0c2.4,0,4.3-1.9,4.3-4.3v0
						C24,8.8,22.1,6.9,19.7,6.9L19.7,6.9z M1.7,4.3c0-1.4,1.2-2.6,2.6-2.6c1.4,0,2.6,1.2,2.6,2.6v0c0,1.4-1.2,2.6-2.6,2.6l0,0
						C2.9,6.9,1.7,5.7,1.7,4.3L1.7,4.3z M6.9,19.7L6.9,19.7c0,1.4-1.2,2.6-2.6,2.6l0,0c-1.4,0-2.6-1.2-2.6-2.6
						c0-1.4,1.2-2.6,2.6-2.6C5.7,17.1,6.9,18.3,6.9,19.7L6.9,19.7z M19.7,13.7L19.7,13.7c-1.4,0-2.6-1.2-2.6-2.6
						c0-1.4,1.2-2.6,2.6-2.6c1.4,0,2.6,1.2,2.6,2.6v0C22.3,12.6,21.1,13.7,19.7,13.7L19.7,13.7z"/>
				</g>
			</g>
		</g>
	</g>
</g>
</svg>
