<?xml version="1.0" encoding="utf-8"?>
<!-- Generator: Adobe Illustrator 22.1.0, SVG Export Plug-In . SVG Version: 6.00 Build 0)  -->
<svg version="1.1" id="图层_1" 
	 xmlns="http://www.w3.org/2000/svg" xmlns:xlink="http://www.w3.org/1999/xlink" x="0px" y="0px" viewBox="0 0 24 24"
	 style="enable-background:new 0 0 24 24;" xml:space="preserve">
<style type="text/css">
	.st0{fill:#B21EFF;}
</style>
<title>业务属性5</title>
<desc>Created with Sketch.</desc>
<g id="页面-1">
	<g id="画板" transform="translate(-1709.000000, -3271.000000)">
		<g id="编组-5" transform="translate(1617.000000, 3070.000000)">
			<g id="业务属性1备份-2" transform="translate(92.000000, 202.000000)">
				<path id="形状结合" class="st0" d="M22-0.5c1.1,0,2,0.9,2,2.1v18.8c0,1.2-0.9,2.1-2,2.1H2c-1.1,0-2-0.9-2-2.1V1.6
					c0-1.2,0.9-2.1,2-2.1H22z M14.6,1.1H8.3v19.7h6.3V1.1z M21.4,1.1h-5.3v19.7h5.3c0.6,0,1-0.5,1-1l0,0V2.2
					C22.4,1.6,22,1.1,21.4,1.1L21.4,1.1z"/>
			</g>
		</g>
	</g>
</g>
</svg>
