<?xml version="1.0" encoding="utf-8"?>
<!-- Generator: Adobe Illustrator 22.1.0, SVG Export Plug-In . SVG Version: 6.00 Build 0)  -->
<svg version="1.1" id="图层_1"
	 xmlns="http://www.w3.org/2000/svg" xmlns:xlink="http://www.w3.org/1999/xlink" x="0px" y="0px" viewBox="0 0 24 24"
	 style="enable-background:new 0 0 24 24;" xml:space="preserve">
<style type="text/css">
	.st0{fill:#B21EFF;}
</style>
<title>逻辑实体5</title>
<desc>Created with Sketch.</desc>
<g id="页面-1">
	<g id="画板" transform="translate(-1621.000000, -3271.000000)">
		<g id="编组-5" transform="translate(1617.000000, 3070.000000)">
			<g id="逻辑实体1备份-2" transform="translate(4.000000, 202.000000)">
				<path id="形状结合" class="st0" d="M22.6-0.5C23.4-0.5,24,0.2,24,1l0,0V21c0,0.9-0.7,1.5-1.5,1.5l0,0h-21
					C0.6,22.5,0,21.8,0,21l0,0V1c0-0.9,0.7-1.5,1.5-1.5l0,0H22.6z M7.9,5.4l-6.1,0v15.1l6.1,0V5.4z M15.3,5.4H9.4v15.1h5.9V5.4z
					 M22.3,5.4l-5.5,0v15.1l5.5,0V5.4z"/>
			</g>
		</g>
	</g>
</g>
</svg>
