<?xml version="1.0" encoding="utf-8"?>
<!-- Generator: Adobe Illustrator 22.1.0, SVG Export Plug-In . SVG Version: 6.00 Build 0)  -->
<svg version="1.1" id="图层_1" xmlns="http://www.w3.org/2000/svg" xmlns:xlink="http://www.w3.org/1999/xlink" x="0px" y="0px"
	 viewBox="0 0 24 24" style="enable-background:new 0 0 24 24;" xml:space="preserve">
<style type="text/css">
	.st0{fill:#0DC2F7;}
	.st1{fill:#0DC2F7;stroke:#0DC2F7;stroke-width:0.5;}
</style>
<title>节点5</title>
<desc>Created with Sketch.</desc>
<g id="图标">
	<g id="画板" transform="translate(-1804.000000, -3437.000000)">
		<g id="编组-5" transform="translate(1617.000000, 3070.000000)">
			<g id="流程" transform="translate(187.250000, 366.500000)">
				<path id="形状" class="st0" d="M6,1h11.5c0.4,0,0.7,0.4,0.7,0.9v4.4c0,0.5-0.3,0.9-0.7,0.9H6c-0.4,0-0.7-0.4-0.7-0.9V1.9
					C5.3,1.4,5.6,1,6,1z M7,2.5c-0.2,0-0.3,0.1-0.3,0.3v2.6c0,0.2,0.1,0.3,0.3,0.3h9.4c0.2,0,0.3-0.1,0.3-0.3V2.8
					c0-0.2-0.1-0.3-0.3-0.3H7z M6,9.4h11.5c0.4,0,0.7,0.4,0.7,0.9v4.4c0,0.5-0.3,0.9-0.7,0.9H6c-0.4,0-0.7-0.4-0.7-0.9v-4.4
					C5.3,9.8,5.6,9.4,6,9.4z M6,17.8h11.5c0.4,0,0.7,0.4,0.7,0.9v4.4c0,0.5-0.3,0.9-0.7,0.9H6c-0.4,0-0.7-0.4-0.7-0.9v-4.4
					C5.3,18.2,5.6,17.8,6,17.8z M7,19.3c-0.2,0-0.3,0.1-0.3,0.3v2.6c0,0.2,0.1,0.3,0.3,0.3h9.4c0.2,0,0.3-0.1,0.3-0.3v-2.6
					c0-0.2-0.1-0.3-0.3-0.3H7z"/>
				<path id="形状结合" class="st1" d="M3.5,13.5v0.7c-1.4,0-2.5,1.1-2.5,2.5c0,1.3,1,2.4,2.3,2.5v-0.9l1.3,1.2l-1.3,1.3V20h0
					c-1.7-0.1-3-1.5-3-3.2C0.3,15,1.7,13.5,3.5,13.5z M20,5.4c1.8,0,3.2,1.4,3.2,3.2c0,1.7-1.4,3.1-3.1,3.2v0.9l-1.3-1.3l1.3-1.2
					v0.9c1.3-0.1,2.3-1.2,2.3-2.5c0-1.4-1.1-2.5-2.5-2.5V5.4z"/>
			</g>
		</g>
	</g>
</g>
</svg>
