<?xml version="1.0" encoding="utf-8"?>
<!-- Generator: Adobe Illustrator 22.1.0, SVG Export Plug-In . SVG Version: 6.00 Build 0)  -->
<svg version="1.1" id="图层_1" xmlns="http://www.w3.org/2000/svg" xmlns:xlink="http://www.w3.org/1999/xlink" x="0px" y="0px"
	 viewBox="0 0 24 24" style="enable-background:new 0 0 24 24;" xml:space="preserve">
<style type="text/css">
	.st0{fill:#2C41FF;}
</style>
<title>物理表1</title>
<desc>Created with Sketch.</desc>
<g id="页面-1">
	<g id="资产图标备份-7" transform="translate(-277.000000, -2216.000000)">
		<g id="物理表1" transform="translate(277.000000, 2216.000000)">
			<path id="形状" class="st0" d="M22,24H2c-1.1,0-2-0.9-2-2V2c0-1.1,0.9-2,2-2H22c1.1,0,2,0.9,2,2V22v0C24,23.1,23.1,24,22,24
				L22,24z M2.3,1.5L2.3,1.5c-0.4,0-0.8,0.3-0.8,0.8l0,0v19.4c0,0.4,0.4,0.8,0.8,0.8h19.4c0.4,0,0.8-0.4,0.8-0.8V2.3l0,0
				c0-0.4-0.3-0.8-0.8-0.8l0,0L2.3,1.5L2.3,1.5L2.3,1.5z M22.3,0c0.1,0,0.2,0.1,0.2,0.2V6h0H0l1-5.1 M24,7.5H0V2.1C0,0.9,0.9,0,2,0
				H22c1.1,0,2,0.9,2,2.1L24,7.5L24,7.5L24,7.5z M1.5,6h21V2.2l0,0c0-0.4-0.3-0.7-0.8-0.7l0,0H2.3l0,0c-0.4,0-0.8,0.3-0.8,0.7l0,0
				L1.5,6L1.5,6z M23.4,16.5H0.6h0c-0.3,0-0.6-0.3-0.6-0.7C0,15.3,0.3,15,0.6,15h22.8l0,0c0.3,0,0.6,0.3,0.6,0.8
				C24,16.2,23.7,16.5,23.4,16.5L23.4,16.5z M8.3,24L8.3,24c-0.4,0-0.7-0.3-0.8-0.6c0,0,0,0,0,0V6.6v0C7.5,6.3,7.8,6,8.3,6
				C8.7,6,9,6.3,9,6.6v16.7v0C9,23.7,8.7,24,8.3,24C8.3,24,8.3,24,8.3,24L8.3,24z M15.8,24L15.8,24c-0.4,0-0.7-0.3-0.8-0.6
				c0,0,0,0,0,0V6.6v0C15,6.3,15.3,6,15.8,6c0.4,0,0.7,0.3,0.7,0.6v16.7l0,0C16.5,23.7,16.2,24,15.8,24L15.8,24z"/>
		</g>
	</g>
</g>
</svg>
