<?xml version="1.0" encoding="utf-8"?>
<!-- Generator: Adobe Illustrator 22.1.0, SVG Export Plug-In . SVG Version: 6.00 Build 0)  -->
<svg version="1.1" id="图层_1" xmlns="http://www.w3.org/2000/svg" xmlns:xlink="http://www.w3.org/1999/xlink" x="0px" y="0px"
	 viewBox="0 0 24 24" style="enable-background:new 0 0 24 24;" xml:space="preserve">
<style type="text/css">
	.st0{fill:#2C41FF;}
</style>
<title>默认5</title>
<desc>Created with Sketch.</desc>
<g id="页面-1">
	<g id="画板" transform="translate(-2690.000000, -3174.000000)">
		<g id="编组-5" transform="translate(1617.000000, 3070.000000)">
			<g id="默认1备份-2" transform="translate(1073.000000, 104.000000)">
				<path id="形状结合" class="st0" d="M8.1,13.3c1.4,0,2.2,0.8,2.2,2.2l0,0v5.8c0,1.3-1.2,2.2-2.2,2.2l0,0H2.2
					c-1.4,0-2.2-0.8-2.2-2.2l0,0v-5.6c0-1.3,0.9-2.3,2.2-2.3l0,0H8.1z M19.9,13.3c1.4,0,2.2,0.8,2.2,2.2l0,0v5.8
					c0,1.3-0.8,2.2-2.2,2.2l0,0h-5.7c-1.5,0-2.4-0.7-2.4-2.2l0,0v-5.8c0-1.3,1-2.2,2.4-2.2l0,0H19.9z M19.4,1.2L23.3,5
					c0.9,0.9,0.9,2,0,2.9l-3.9,3.8h0c-1,1-2.2,0.7-2.9,0l-3.9-3.8c-0.9-0.9-0.8-2.1,0.1-3l3.8-3.7C17.4,0.3,18.5,0.3,19.4,1.2z
					 M8.1,1.7c1.4,0,2.2,0.8,2.2,2.2l0,0v5.8c0,1.3-0.8,2.2-2.2,2.2l0,0H2.2C0.9,11.9,0,11.1,0,9.7l0,0V3.9c0-1.3,0.8-2.2,2.2-2.2
					l0,0H8.1z"/>
			</g>
		</g>
	</g>
</g>
</svg>
