<?xml version="1.0" encoding="utf-8"?>
<!-- Generator: Adobe Illustrator 22.1.0, SVG Export Plug-In . SVG Version: 6.00 Build 0)  -->
<svg version="1.1" id="图层_1" xmlns="http://www.w3.org/2000/svg" xmlns:xlink="http://www.w3.org/1999/xlink" x="0px" y="0px"
	 viewBox="0 0 24 24" style="enable-background:new 0 0 24 24;" xml:space="preserve">
<style type="text/css">
	.st0{fill:#2C41FF;fill-opacity:0.4;}
	.st1{fill:#2C41FF;}
</style>
<title>列5</title>
<desc>Created with Sketch.</desc>
<g id="页面-1">
	<g id="画板" transform="translate(-1712.000000, -3174.000000)">
		<g id="编组-5" transform="translate(1617.000000, 3070.000000)">
			<g id="列1备份-2" transform="translate(95.000000, 104.000000)">
				<path id="形状" class="st0" d="M22,24H2c-1.1,0-2-0.9-2-2V2c0-1.1,0.9-2,2-2H22c1.1,0,2,0.9,2,2V22v0C24,23.1,23.1,24,22,24
					L22,24z M2.3,1.5L2.3,1.5c-0.4,0-0.8,0.3-0.8,0.8l0,0v19.4c0,0.4,0.4,0.8,0.8,0.8h19.4c0.4,0,0.8-0.4,0.8-0.8V2.3l0,0
					c0-0.4-0.3-0.8-0.8-0.8l0,0L2.3,1.5L2.3,1.5L2.3,1.5z M0,6l1.8-5.3L22.3,0c0.1,0,0.2,0.1,0.2,0.2V6H0z M0,7.5c0-2.9,0-4.7,0-5.4
					C0,0.9,0.9,0,2,0C2.8,0,9.4,0,22,0c1.1,0,2,0.9,2,2.1v5.4h0H0z M1.5,6h21V2.2l0,0c0-0.4-0.3-0.7-0.8-0.7l0,0H2.3l0,0
					c-0.4,0-0.8,0.3-0.8,0.7l0,0L1.5,6L1.5,6z M0.6,16.5h7.6V15h15.1c0.3,0,0.6,0.3,0.6,0.8c0,0.4-0.3,0.8-0.6,0.8H0.6z M8.2,24
					L8.2,24c-0.4,0-0.7-0.3-0.8-0.6c0,0,0,0,0,0V6.6v0C7.5,6.3,7.8,6,8.2,6C8.7,6,9,6.3,9,6.6v16.7v0C9,23.7,8.7,24,8.2,24
					C8.3,24,8.3,24,8.2,24L8.2,24z M15.8,24L15.8,24c-0.4,0-0.7-0.3-0.8-0.6c0,0,0,0,0,0V6.6v0C15,6.3,15.3,6,15.8,6
					c0.4,0,0.7,0.3,0.7,0.6v16.7l0,0C16.5,23.7,16.2,24,15.8,24L15.8,24z"/>
				<path id="形状_1_" class="st1" d="M2,24c-0.4,0-2-0.4-2-1.5V1.9C0,0.8,1.4,0,1.8,0h7.1L9,24H2z M2.5,22.5h0.3l0,0h4.7V2.3
					c0-0.4-0.1-0.8-0.2-0.8H1.7l-0.2,20C1.5,22,1.9,22.5,2.5,22.5C2.5,22.5,2.5,22.5,2.5,22.5z M0,7.5V2.1C0,0.9,1.3,0,1.7,0h5.2
					c0.4,0,0.6,0.9,0.6,2.1v5.4h0H0z"/>
			</g>
		</g>
	</g>
</g>
</svg>
