<?xml version="1.0" encoding="utf-8"?>
<!-- Generator: Adobe Illustrator 22.1.0, SVG Export Plug-In . SVG Version: 6.00 Build 0)  -->
<svg version="1.1" id="图层_1" xmlns="http://www.w3.org/2000/svg" xmlns:xlink="http://www.w3.org/1999/xlink" x="0px" y="0px"
	 viewBox="0 0 24 24" style="enable-background:new 0 0 24 24;" xml:space="preserve">
<style type="text/css">
	.st0{fill:#FF9800;}
</style>
<title>数据库5</title>
<desc>Created with Sketch.</desc>
<g id="页面-1">
	<g id="画板" transform="translate(-1708.000000, -3070.000000)">
		<g id="编组-5" transform="translate(1617.000000, 3070.000000)">
			<g id="数据库1备份-2" transform="translate(93.000000, 1.000000)">
				<g id="数据库">
					<path id="形状" class="st0" d="M20,3.1v2c0,1.7-4.5,3.1-10,3.1S0,6.8,0,5.1v-2C0,1.4,4.5,0,10,0S20,1.4,20,3.1z M20,7.5v4.4
						c0,1.7-4.5,3.2-10,3.2S0,13.7,0,11.9V7.5c2.1,1.4,6.1,2.1,10,2.1S17.9,8.9,20,7.5z M20,14.4v4.4c0,1.7-4.5,3.2-10,3.2
						S0,20.6,0,18.8v-4.4c2.1,1.4,6.1,2.1,10,2.1S17.9,15.8,20,14.4z"/>
				</g>
			</g>
		</g>
	</g>
</g>
</svg>
