<?xml version="1.0" encoding="utf-8"?>
<!-- Generator: Adobe Illustrator 22.1.0, SVG Export Plug-In . SVG Version: 6.00 Build 0)  -->
<svg version="1.1" id="图层_1" xmlns="http://www.w3.org/2000/svg" xmlns:xlink="http://www.w3.org/1999/xlink" x="0px" y="0px"
	 viewBox="0 0 24 24" style="enable-background:new 0 0 24 24;" xml:space="preserve">
<style type="text/css">
	.st0{fill:#0DC2F7;}
</style>
<title>见解5</title>
<desc>Created with Sketch.</desc>
<g id="页面-1">
	<g id="画板" transform="translate(-1989.000000, -3369.000000)">
		<g id="编组-5" transform="translate(1617.000000, 3070.000000)">
			<g id="见解1备份-2" transform="translate(372.000000, 299.000000)">
				<path id="形状" class="st0" d="M12,4.8L12,4.8C8.1,4.8,5,7.9,5,11.8c0,3.9,3.2,7.1,7.1,7.1c3.9,0,7.1-3.2,7.1-7.1
					c0-1.9-0.7-3.7-2.1-5l0,0C15.7,5.5,13.9,4.8,12,4.8L12,4.8z M14.4,19.9H9.7l0,0c-0.5,0-0.8,0.4-0.8,0.9c0,0.4,0.4,0.8,0.8,0.8
					h4.7l0,0c0.5,0,0.8-0.4,0.8-0.9C15.2,20.3,14.8,20,14.4,19.9L14.4,19.9z M12.8,22.3h-1.6l0,0c-0.5,0-0.8,0.4-0.8,0.9
					c0,0.4,0.4,0.8,0.8,0.8h1.6l0,0c0.5,0,0.8-0.4,0.8-0.9C13.6,22.7,13.3,22.3,12.8,22.3L12.8,22.3z M12,3.3L12,3.3
					c0.5,0,0.8-0.4,0.8-0.8c0,0,0,0,0,0V0.9v0C12.9,0.4,12.5,0,12,0c-0.5,0-0.8,0.3-0.9,0.8c0,0,0,0,0,0.1v1.6v0
					C11.2,2.9,11.6,3.2,12,3.3L12,3.3z M23.2,10h-1.6l0,0c-0.5,0-0.8,0.4-0.8,0.8c0,0.5,0.4,0.8,0.8,0.8l0,0h1.6l0,0
					c0.5,0,0.8-0.4,0.8-0.8C24,10.3,23.6,10,23.2,10L23.2,10z M2.4,10H0.8l0,0C0.4,10,0,10.3,0,10.8c0,0.5,0.4,0.8,0.8,0.8h1.6l0,0
					c0.5,0,0.8-0.4,0.8-0.8C3.2,10.3,2.9,10,2.4,10L2.4,10z M20.7,3.7L20.7,3.7c-0.3-0.3-0.9-0.3-1.2,0c0,0,0,0,0,0l-1.1,1.1l0,0
					c-0.3,0.3-0.3,0.9,0,1.2c0.2,0.2,0.4,0.2,0.6,0.2l0,0c0.2,0,0.4-0.1,0.6-0.2l1.1-1.1l0,0C21.1,4.5,21.1,4,20.7,3.7
					C20.7,3.7,20.7,3.7,20.7,3.7L20.7,3.7z M5.5,6L5.5,6c0.3-0.3,0.3-0.9,0-1.2L4.4,3.7l0,0c-0.3-0.3-0.9-0.3-1.2,0
					C2.9,4,2.9,4.5,3.3,4.9l0,0L4.4,6l0,0C4.5,6.1,4.7,6.2,5,6.2l0,0C5.2,6.2,5.4,6.1,5.5,6L5.5,6z"/>
			</g>
		</g>
	</g>
</g>
</svg>
